<svg id="graduation_cap-pen-pencil-education" data-name="graduation cap-pen-pencil-education" xmlns="http://www.w3.org/2000/svg" width="77.048" height="77.045" viewBox="0 0 77.048 77.045">
  <rect id="Rectangle_13" data-name="Rectangle 13" width="8" height="25" transform="translate(48.985 38.369)" fill="#64c37d"/>
  <rect id="Rectangle_14" data-name="Rectangle 14" width="9" height="9" transform="translate(33.985 40.369)" fill="#ff5023"/>
  <path id="Path_6" data-name="Path 6" d="M60.137,23.568V28.7H55V23.568a2.568,2.568,0,1,1,5.137,0Z" transform="translate(13.059 3.395)" fill="#d80027"/>
  <path id="Path_7" data-name="Path 7" d="M77.48,13.273v2.568l-37.24,7.7L3,15.841V13.273L40.24,3Z" transform="translate(-1.716 -1.719)" fill="#ffda44"/>
  <path id="Path_8" data-name="Path 8" d="M61.8,15.07V32.958c0,3.814-6.421,7.063-15.5,8.373a62.618,62.618,0,0,1-8.9.616c-13.471,0-24.4-4.019-24.4-8.989V15.07l24.4,5.047Z" transform="translate(1.125 1.71)" fill="#ff9811"/>
  <path id="Path_9" data-name="Path 9" d="M15,32.13c2.466,1.811,6.549,3.275,11.557,4.135v27.8H15Z" transform="translate(1.694 6.558)" fill="#9bfbff"/>
  <path id="Path_10" data-name="Path 10" d="M36.7,43V59.694l-2.568-2.568L32.852,58.41l-1.284-1.284L29,59.694V43Z" transform="translate(5.672 9.646)" fill="#ff5023"/>
  <rect id="Rectangle_15" data-name="Rectangle 15" width="9" height="3" transform="translate(33.985 49.369)" fill="#e0e0e2"/>
  <path id="Path_11" data-name="Path 11" d="M36.7,56.568v1.284l-3.852,5.137L29,57.852V56.568L31.568,54l1.284,1.284L34.137,54Z" transform="translate(5.672 12.772)" fill="#2d2d30"/>
  <path id="Path_12" data-name="Path 12" d="M47.7,51l-3.852,7.7L40,51Z" transform="translate(8.797 11.919)" fill="#00665a"/>
  <path id="Path_13" data-name="Path 13" d="M78.111,12.324,40.871,2.051a1.273,1.273,0,0,0-.693,0L2.937,12.324A1.284,1.284,0,0,0,2,13.556v2.568a1.284,1.284,0,0,0,1.028,1.259l11.814,2.44V36.671a6.092,6.092,0,0,0,2.568,4.674V72.627a1.284,1.284,0,0,0,1.284,1.284H30.251a1.284,1.284,0,0,0,1.284-1.284V46.315c1.258.18,2.555.321,3.852.424V72.627a1.264,1.264,0,0,0,.257.77L39.5,78.534a1.284,1.284,0,0,0,2.055,0L45.4,73.4a1.264,1.264,0,0,0,.257-.77V46.738c1.3-.1,2.594-.244,3.852-.424V64.922a1.284,1.284,0,0,0,.141.578l3.852,7.7a1.284,1.284,0,0,0,2.286,0l3.852-7.7a1.284,1.284,0,0,0,.141-.578v-21.3c3.891-1.7,6.421-4.032,6.421-6.947V19.823l5.137-1.053v6.575a3.865,3.865,0,0,0-2.568,3.621V34.1a1.284,1.284,0,0,0,1.284,1.284H75.2A1.284,1.284,0,0,0,76.48,34.1V28.966a3.865,3.865,0,0,0-2.568-3.621V18.231l4.109-.848a1.284,1.284,0,0,0,1.027-1.258V13.556A1.284,1.284,0,0,0,78.111,12.324ZM28.967,71.342H19.978V66.206h5.137V63.638H19.978V57.217h2.568V54.649H19.978V48.228h5.137V45.66H19.978V43a34.08,34.08,0,0,0,8.989,2.889Zm14.125.86-2.568,3.416L37.956,72.2v-.334l1.284-1.284.372.385a1.294,1.294,0,0,0,1.823,0l.372-.385,1.284,1.284Zm0-3.955-.372-.385a1.294,1.294,0,0,0-1.823,0l-.372.385-.372-.385a1.294,1.294,0,0,0-1.823,0l-.372.385V55.933h5.137Zm0-14.883H37.956V52.08h5.137Zm0-3.852H37.956v-2.62c.86.039,1.708.051,2.568.051s1.708-.013,2.568-.051ZM54.649,69.75l-1.772-3.544h3.544Zm2.568-6.112H52.081V45.891a39.959,39.959,0,0,0,5.137-1.31Zm6.421-26.967c0,3.647-9.49,7.7-23.114,7.7s-23.114-4.058-23.114-7.7V20.362l22.858,4.726a1.3,1.3,0,0,0,.514,0l22.858-4.726Zm10.273-3.852H71.343V28.966a1.284,1.284,0,0,1,2.568,0ZM76.48,15.085l-2.568.526v-.77H71.343v1.3L40.524,22.52,4.568,15.085v-.552L40.524,4.619,76.48,14.532Z" transform="translate(-2 -2.003)"/>
  <rect id="Rectangle_16" data-name="Rectangle 16" width="3" height="13" transform="translate(50.985 45.369)"/>
</svg>
