<svg xmlns="http://www.w3.org/2000/svg" width="93.569" height="62.15" viewBox="0 0 93.569 62.15">
  <g id="Group_18" data-name="Group 18" transform="translate(0 0)">
    <rect id="Rectangle_18" data-name="Rectangle 18" width="53.315" height="5.601" rx="2.8" transform="translate(38.8 55.19)" fill="#f66"/>
    <path id="Path_14" data-name="Path 14" d="M280.559,230.4H234.718l5.33-14.774.951-2.637,2.972-8.237.951-2.637,4.507-12.494,3.521-9.761a4.983,4.983,0,0,1,9.373,0l8.029,22.255.952,2.637,2.972,8.237.951,2.637Z" transform="translate(-192.18 -175.212)" fill="#ffe966"/>
    <path id="Path_15" data-name="Path 15" d="M313.111,320.166a1.336,1.336,0,0,1-.46.082H286.238a1.338,1.338,0,0,1-.46-.082l.951-2.637h25.43Z" transform="translate(-233.987 -290.624)" fill="#f66"/>
    <path id="Path_16" data-name="Path 16" d="M299.309,331.035a1.339,1.339,0,0,1-.462.082H264.588a1.336,1.336,0,0,1-.46-.082l9.346-13.512h20.959Z" transform="translate(-216.26 -290.619)" fill="#f66"/>
    <path id="Path_17" data-name="Path 17" d="M253.448,274.676a29.43,29.43,0,0,1-10.678,14.692h-8.052l5.33-14.774.951-2.637,2.972-8.237.951-2.637,4.507-12.494c.246.344.484.694.716,1.049a29.178,29.178,0,0,1,4.379,11.445" transform="translate(-192.18 -234.178)" fill="#ffdf1f"/>
    <path id="Path_18" data-name="Path 18" d="M296.623,320.247H286.238a1.335,1.335,0,0,1-.46-.082l.951-2.637h9.6C296.469,318.422,296.569,319.329,296.623,320.247Z" transform="translate(-233.987 -290.624)" fill="#ff4e4e"/>
    <path id="Path_19" data-name="Path 19" d="M278.9,332.17a29.853,29.853,0,0,1-.968,9.528q-.188.691-.4,1.346h-12.94a1.336,1.336,0,0,1-.46-.082l5.254-10.872Z" transform="translate(-216.26 -302.546)" fill="#ff4e4e"/>
    <path id="Path_20" data-name="Path 20" d="M65.729,209.951c0,.513-.013,1.02-.04,1.526A29.371,29.371,0,0,1,46.9,237.357a28.407,28.407,0,0,1-2.918.948,29.533,29.533,0,0,1-15.216,0,28.4,28.4,0,0,1-2.918-.948,29.357,29.357,0,0,1-18.785-25.88c-.027-.506-.04-1.013-.04-1.526s.013-1.034.04-1.548a29.372,29.372,0,0,1,18.8-25.864,28.889,28.889,0,0,1,2.92-.948h0a29.565,29.565,0,0,1,15.184,0h0a28.888,28.888,0,0,1,2.92.948,29.356,29.356,0,0,1,18.8,25.864Q65.73,209.173,65.729,209.951Z" transform="translate(-5.755 -178.511)" fill="#eee"/>
    <path id="Path_21" data-name="Path 21" d="M46.892,182.54a1.347,1.347,0,0,1-.48.64l-8.674,6.3-.56.408a1.362,1.362,0,0,1-1.6,0l-.56-.408-8.674-6.3a1.347,1.347,0,0,1-.48-.64,28.888,28.888,0,0,1,2.92-.948h0a29.566,29.566,0,0,1,15.184,0h0A28.885,28.885,0,0,1,46.892,182.54Zm-29.84,21.971-.642.466L7.819,211.22a1.338,1.338,0,0,1-.75.257c-.027-.506-.04-1.013-.04-1.526s.013-1.034.04-1.548a29.265,29.265,0,0,1,6.494-16.916,1.33,1.33,0,0,1,.457.649l3.342,10.285.185.571a1.355,1.355,0,0,1-.493,1.519Zm11.718,33.795a28.407,28.407,0,0,1-2.918-.948,29.448,29.448,0,0,1-14.087-11.412,1.35,1.35,0,0,1,.761-.234H23.941a1.359,1.359,0,0,1,1.292.941l.236.725,3.291,10.129A1.338,1.338,0,0,1,28.771,238.305Zm32.221-12.36A29.448,29.448,0,0,1,46.9,237.357a28.4,28.4,0,0,1-2.918.948,1.338,1.338,0,0,1,.011-.8l3.291-10.129.236-.725a1.359,1.359,0,0,1,1.292-.941H60.231a1.35,1.35,0,0,1,.761.234Zm4.737-15.994c0,.513-.013,1.02-.04,1.526a1.338,1.338,0,0,1-.75-.257l-8.592-6.243-.642-.466a1.355,1.355,0,0,1-.493-1.519l.185-.571,3.342-10.285a1.33,1.33,0,0,1,.457-.649A29.266,29.266,0,0,1,65.69,208.4Q65.73,209.173,65.729,209.951Z" transform="translate(-5.756 -178.511)" fill="#bebebe"/>
    <path id="Path_22" data-name="Path 22" d="M118.046,283.385l-11.274,8.191,4.306,13.253h13.935l4.306-13.253Z" transform="translate(-87.422 -262.668)" fill="#bebebe"/>
    <path id="Path_23" data-name="Path 23" d="M89.5,222.9h-.064l-17.91-49.641a6.342,6.342,0,0,0-11.931,0l-3.562,9.874c-.142-.206-.285-.411-.432-.613a1.361,1.361,0,0,0-.283-.387A30.841,30.841,0,0,0,40.508,171.4a1.363,1.363,0,0,0-.263-.086,30.718,30.718,0,0,0-19.043,0,1.362,1.362,0,0,0-.265.086,30.841,30.841,0,0,0-14.8,10.735,1.362,1.362,0,0,0-.283.387A30.543,30.543,0,0,0,.013,200.511c0,.009,0,.017,0,.026a1.361,1.361,0,0,0,0,.332,30.537,30.537,0,0,0,5.631,17.354,1.361,1.361,0,0,0,.281.387,30.835,30.835,0,0,0,15.362,11.127,1.354,1.354,0,0,0,.205.067,30.76,30.76,0,0,0,17.345.327,4.054,4.054,0,0,0,2.777,1.09H89.5a4.082,4.082,0,0,0,4.078-4.078v-.164A4.082,4.082,0,0,0,89.5,222.9Zm-2.954,0H51.715a30.966,30.966,0,0,0,3.8-4.292,1.362,1.362,0,0,0,.28-.387,30.608,30.608,0,0,0,4.271-8.654H81.732ZM43.1,198.97l7.586-3.435,8.011,5.82a27.823,27.823,0,0,1-4.858,14.916H43.788l-4.569-5.343Zm-6.4,10.9H24.743l-3.7-11.375,9.676-7.03L40.4,198.5Zm44.048-3.024H60.772a30.721,30.721,0,0,0,.656-5.982,1.361,1.361,0,0,0,0-.332c0-.009,0-.017,0-.026q0-.915-.054-1.816H77.809Zm-18.6-32.666a3.624,3.624,0,0,1,6.817,0l7.862,21.792H61.1a30.472,30.472,0,0,0-3.254-9.859Zm-3.555,23.734-6.146-4.466,2.345-7.217A27.793,27.793,0,0,1,58.594,197.918ZM52.856,183.4l-3.114,9.585-7.586,3.435L32.082,189.1v-9.055l8.092-5.879A28.115,28.115,0,0,1,52.856,183.4ZM30.723,172.519a27.981,27.981,0,0,1,6.149.682l-6.149,4.468L24.574,173.2a27.98,27.98,0,0,1,6.149-.682Zm-9.451,1.643,8.091,5.879V189.1L19.29,196.415,11.7,192.981,8.59,183.4a28.115,28.115,0,0,1,12.683-9.233ZM6.654,186.236,9,193.452l-6.146,4.466a27.793,27.793,0,0,1,3.8-11.682ZM7.6,216.272a27.823,27.823,0,0,1-4.857-14.916l8.011-5.82,7.586,3.435,3.885,11.958-4.569,5.343Zm2.115,2.719H17.3l2.347,7.224a28.127,28.127,0,0,1-9.927-7.224Zm28.846,8.393a28.023,28.023,0,0,1-15.682,0l-3.07-9.448,4.569-5.343H37.065l4.569,5.343Zm5.585-8.393h7.579a28.128,28.128,0,0,1-9.927,7.224Zm46.706,8.153A1.361,1.361,0,0,1,89.5,228.5H43.344a30.716,30.716,0,0,0,5.037-2.882H89.5a1.361,1.361,0,0,1,1.359,1.359Z" transform="translate(-0.005 -169.071)" fill="#272a33"/>
  </g>
</svg>
