<svg xmlns="http://www.w3.org/2000/svg" width="65.779" height="60.174" viewBox="0 0 65.779 60.174">
  <g id="Group_24" data-name="Group 24" transform="translate(0 0)">
    <path id="Path_51" data-name="Path 51" d="M57.365,1410.86H74.395v4.865H57.365Zm-2.433,9.731H76.827a2.428,2.428,0,0,1,2.433,2.433v14.6a2.428,2.428,0,0,1-2.433,2.433H54.933a2.428,2.428,0,0,1-2.433-2.433v-14.6A2.428,2.428,0,0,1,54.933,1420.591Zm46.706,11.094a14.288,14.288,0,0,1-15.177,8.22,8.514,8.514,0,0,0,1.658-8.761,6.572,6.572,0,0,1-.314-1.234,7.3,7.3,0,1,1,13.84,1.757" transform="translate(-52.5 -1379.895)" fill="#d3d5e7"/>
    <path id="Path_52" data-name="Path 52" d="M2.433,0h9.731a2.433,2.433,0,0,1,0,4.865H2.433A2.433,2.433,0,1,1,2.433,0Z" transform="matrix(0.911, 0.412, -0.412, 0.911, 39.83, 36.884)" fill="#7f6773"/>
    <path id="Path_53" data-name="Path 53" d="M89.2,1399.344l3.219-1.213,1.213,3.219s-5.708,25.827-9.11,31.926-5.727,6.754-5.727,6.754l-4.433-2.006-4.432-2.006s-1.042-2.179,1.295-8.76S89.2,1399.344,89.2,1399.344Z" transform="translate(-27.856 -1398.131)" fill="#bc8d66"/>
    <path id="Path_54" data-name="Path 54" d="M52.5,1416.86H67.1v9.731H52.5Z" transform="translate(-52.5 -1371.298)" fill="#ff5751"/>
    <path id="Path_55" data-name="Path 55" d="M55.5,1412.86H67.664v4.865H55.5Z" transform="translate(-48.202 -1377.029)" fill="#b0b3d4"/>
  </g>
</svg>
