<svg id="Group_23" data-name="Group 23" xmlns="http://www.w3.org/2000/svg" width="66.651" height="52.571" viewBox="0 0 66.651 52.571">
  <path id="Path_48" data-name="Path 48" d="M34.555,10.78a3.557,3.557,0,0,0-.838.113L12.58,16.557a3.4,3.4,0,0,0-2.492,3.262V32.529h-.68a7.408,7.408,0,1,0,7.408,7.408V22.379l14.409-3.851v5.8h-.68a7.408,7.408,0,1,0,7.408,7.34V14.156a3.4,3.4,0,0,0-3.4-3.376Z" transform="translate(-0.391 3.748)" fill="#f6e781"/>
  <path id="Path_49" data-name="Path 49" d="M37.773,5.215,30.976,7a3.376,3.376,0,0,0-2.447,3.217V22.75h-.7a7.318,7.318,0,1,0,7.408,7.318V12.759l4.055-1.087A3.489,3.489,0,0,0,41.9,8.341a3.262,3.262,0,0,0-4.123-3.126Z" transform="translate(23.147 -3.441)" fill="#da4a54"/>
  <path id="Path_50" data-name="Path 50" d="M19.414,47.984V31.809l11.01-2.945v1.858a9.062,9.062,0,1,0,10.127,9.062V22.271a5.1,5.1,0,0,0-5.1-5.143,4.758,4.758,0,0,0-1.269.181L13.048,22.973a5.075,5.075,0,0,0-3.761,4.893v11.01a9.062,9.062,0,1,0,10.127,9.062Zm-14.816,0a5.709,5.709,0,0,1,4.69-5.6v3.149a1.7,1.7,0,1,0,3.4,0v-17.6a1.7,1.7,0,0,1,1.246-1.609l21.137-5.664a1.654,1.654,0,0,1,2.084,1.609V39.783a5.709,5.709,0,1,1-6.8-5.618V36.43a1.7,1.7,0,1,0,3.4,0V26.643a1.7,1.7,0,0,0-.657-1.337,1.654,1.654,0,0,0-1.473-.295L17.194,28.864a1.7,1.7,0,0,0-1.246,1.631v17.49a5.709,5.709,0,0,1-11.328,0ZM61.8,4.509l-6.8,1.79a5.029,5.029,0,0,0-3.738,4.848V21.976a9.062,9.062,0,1,0,10.1,8.949V15.067l2.7-.816a5.165,5.165,0,0,0,3.874-4.984A4.961,4.961,0,0,0,61.8,4.509Zm1.518,6.457-4.055,1.065A1.722,1.722,0,0,0,58,13.685V30.9a5.709,5.709,0,0,1-11.328,0,5.618,5.618,0,0,1,6.072-5.528,1.631,1.631,0,0,0,1.314-.43,1.654,1.654,0,0,0,.566-1.269V11.147a1.631,1.631,0,0,1,1.2-1.563l6.8-1.79h0a1.563,1.563,0,0,1,1.971,1.473,1.767,1.767,0,0,1-1.291,1.7Z" transform="translate(-1.29 -4.367)" fill="#23232b"/>
</svg>
