<svg xmlns="http://www.w3.org/2000/svg" width="68.924" height="57.256" viewBox="0 0 68.924 57.256">
  <g id="Group_43" data-name="Group 43" transform="translate(-877.272 -36.104)">
    <path id="Path_47" data-name="Path 47" d="M34.159,11.659a10.038,10.038,0,0,0-5.145-5.927V1H20.259V5.732a10.038,10.038,0,0,0-5.145,5.927H9.4v6.114h5.714a10.031,10.031,0,0,0,5.145,5.933V42.318h8.754V23.706a10.031,10.031,0,0,0,5.145-5.933h5.714V11.659H34.159Zm-1.214.458a3.112,3.112,0,0,1-3.932-4.752V7.191A8.739,8.739,0,0,1,32.945,12.117Zm-8.309,6.146a3.544,3.544,0,1,1,3.544-3.544A3.55,3.55,0,0,1,24.636,18.263ZM20.259,7.191v.174a3.108,3.108,0,0,1-3.932,4.752A8.739,8.739,0,0,1,20.259,7.191ZM16.321,17.314a3.11,3.11,0,0,1,3.938,4.752v.181A8.743,8.743,0,0,1,16.321,17.314Zm12.692,4.932v-.181c-2.512-2.667.9-6.755,3.932-4.745A8.739,8.739,0,0,1,29.013,22.247Z" transform="translate(906.324 35.104)" fill="#716154"/>
    <g id="Group_22" data-name="Group 22" transform="translate(877.272 56.763)">
      <path id="Path_34" data-name="Path 34" d="M.5,27.017V6.78A1.343,1.343,0,0,1,2.127,5.467L21.322,9.618,40.516,5.467A1.343,1.343,0,0,1,42.143,6.78V27.033a1.343,1.343,0,0,1-1.065,1.314L21.322,32.527l-19.757-4.2A1.343,1.343,0,0,1,.5,27.017Z" transform="translate(0.172 -1.328)" fill="#bc9a7b"/>
      <path id="Path_35" data-name="Path 35" d="M21.493,33.369a.717.717,0,0,1-.14-.014L1.6,29.16A2.024,2.024,0,0,1,0,27.188V6.952A2.013,2.013,0,0,1,2.441,4.982L21.493,9.1,40.546,4.982a2.014,2.014,0,0,1,2.44,1.969V27.205a2.023,2.023,0,0,1-1.6,1.97l-19.756,4.18A.711.711,0,0,1,21.493,33.369ZM2.014,6.28a.67.67,0,0,0-.67.672V27.188a.674.674,0,0,0,.532.657l19.618,4.166,19.617-4.151a.675.675,0,0,0,.533-.656V6.952a.672.672,0,0,0-.813-.657L21.635,10.446a.646.646,0,0,1-.283,0L2.157,6.294A.75.75,0,0,0,2.014,6.28Z" transform="translate(0 -1.5)" fill="#2c2b2d"/>
      <path id="Path_36" data-name="Path 36" d="M36.053,25.6,20.292,29.385,4.53,25.6A1.343,1.343,0,0,1,3.5,24.3V4.222A1.343,1.343,0,0,1,5.157,2.916L20.292,6.548,35.426,2.916a1.343,1.343,0,0,1,1.657,1.306V24.3a1.343,1.343,0,0,1-1.03,1.306Z" transform="translate(1.202 -2.207)" fill="#e0e0e2"/>
      <path id="Path_37" data-name="Path 37" d="M20.463,30.228a.706.706,0,0,1-.157-.018L4.545,26.427A2.008,2.008,0,0,1,3,24.467V4.394a2.015,2.015,0,0,1,2.486-1.96L20.463,6.029,35.442,2.434a2.014,2.014,0,0,1,2.485,1.96V24.467a2.007,2.007,0,0,1-1.545,1.96L20.62,30.21a.706.706,0,0,1-.157.018ZM5.013,3.721a.672.672,0,0,0-.67.673V24.467a.668.668,0,0,0,.514.653l15.606,3.745L36.069,25.12h0a.668.668,0,0,0,.514-.653V4.394a.67.67,0,0,0-.828-.653L20.62,7.373a.7.7,0,0,1-.314,0L5.172,3.741a.657.657,0,0,0-.159-.02Z" transform="translate(1.03 -2.378)" fill="#2c2b2d"/>
      <path id="Path_38" data-name="Path 38" d="M4.53,20.887,20.292,24.67v-.853A4.03,4.03,0,0,0,17.2,19.9L3.5,16.61v2.971a1.343,1.343,0,0,0,1.03,1.306Z" transform="translate(1.202 2.508)" fill="#afaeb3"/>
      <path id="Path_39" data-name="Path 39" d="M20.463,25.513a.706.706,0,0,1-.157-.018L4.545,21.712A2.008,2.008,0,0,1,3,19.752v-2.97a.672.672,0,0,1,.256-.527.679.679,0,0,1,.573-.126l13.7,3.287a4.689,4.689,0,0,1,3.6,4.573v.853a.672.672,0,0,1-.672.672Zm-16.12-7.88v2.119a.668.668,0,0,0,.514.653h0l14.933,3.585h0a3.35,3.35,0,0,0-2.574-3.266Z" transform="translate(1.03 2.336)" fill="#2c2b2d"/>
      <path id="Path_40" data-name="Path 40" d="M16,24.67l15.762-3.783a1.343,1.343,0,0,0,1.03-1.306V16.61L19.09,19.9A4.03,4.03,0,0,0,16,23.817Z" transform="translate(5.493 2.508)" fill="#afaeb3"/>
      <path id="Path_41" data-name="Path 41" d="M19.672,29.283A.672.672,0,0,1,19,28.611v-.853a4.689,4.689,0,0,1,3.6-4.573l13.7-3.287a.68.68,0,0,1,.572.126.672.672,0,0,1,.256.527v2.97a2.007,2.007,0,0,1-1.545,1.96L19.829,29.265a.706.706,0,0,1-.157.018Zm16.12-7.88-12.874,3.09a3.35,3.35,0,0,0-2.574,3.266h0l14.934-3.585a.668.668,0,0,0,.514-.653ZM23.439,16.868a.672.672,0,0,1-.163-1.324l9.331-2.332a.672.672,0,1,1,.325,1.3L23.6,16.848A.7.7,0,0,1,23.439,16.868Zm0-4.03a.672.672,0,0,1-.163-1.324l9.331-2.332a.672.672,0,0,1,.325,1.3L23.6,12.818A.7.7,0,0,1,23.439,12.838Zm0-4.03a.672.672,0,0,1-.163-1.324l9.331-2.332a.672.672,0,0,1,.325,1.3L23.6,8.788A.7.7,0,0,1,23.439,8.808Zm0,12.09a.672.672,0,0,1-.163-1.324l9.331-2.332a.672.672,0,1,1,.325,1.3L23.6,20.878A.7.7,0,0,1,23.439,20.9Zm-8.131-4.03a.7.7,0,0,1-.163-.02l-9.33-2.332a.672.672,0,1,1,.325-1.3l9.33,2.332a.672.672,0,0,1-.162,1.324Zm0-4.03a.7.7,0,0,1-.163-.02L5.813,10.486a.672.672,0,1,1,.325-1.3l9.33,2.332a.672.672,0,0,1-.162,1.324Zm0-4.03a.7.7,0,0,1-.163-.02L5.813,6.456a.672.672,0,1,1,.325-1.3l9.33,2.332a.672.672,0,0,1-.162,1.324Zm0,12.09a.7.7,0,0,1-.163-.02l-9.33-2.332a.672.672,0,1,1,.325-1.3l9.33,2.332a.672.672,0,0,1-.162,1.324Z" transform="translate(1.821 -1.433)" fill="#2c2b2d"/>
      <path id="Path_42" data-name="Path 42" d="M16.172,29.29a.671.671,0,0,1-.672-.672V5.782a.672.672,0,0,1,1.343,0V28.619a.671.671,0,0,1-.672.672Z" transform="translate(5.322 -1.44)" fill="#2c2b2d"/>
      <path id="Path_43" data-name="Path 43" d="M32.91,31.287,16.02,26.6l18.592-3.93v7.322a1.343,1.343,0,0,1-1.7,1.294Z" transform="translate(5.5 4.589)" fill="#b28966"/>
      <path id="Path_44" data-name="Path 44" d="M33.446,32.18a2.047,2.047,0,0,1-.544-.075h0L16.012,27.419a.671.671,0,0,1,.041-1.3l18.592-3.93a.682.682,0,0,1,.562.135.673.673,0,0,1,.249.522v7.321a2.016,2.016,0,0,1-2.01,2.016Zm-.185-1.368a.672.672,0,0,0,.851-.648V23.672l-15.09,3.189Z" transform="translate(5.328 4.417)" fill="#2c2b2d"/>
      <path id="Path_45" data-name="Path 45" d="M3.862,31.29,20.752,26.6,2.16,22.664V30a1.343,1.343,0,0,0,1.7,1.294Z" transform="translate(0.741 4.586)" fill="#b28966"/>
      <path id="Path_46" data-name="Path 46" d="M3.669,32.183a2.017,2.017,0,0,1-2.01-2.016V22.836a.671.671,0,0,1,.811-.657l18.592,3.939a.671.671,0,0,1,.041,1.3L4.213,32.108A2.039,2.039,0,0,1,3.669,32.183ZM3,23.665v6.5a.672.672,0,0,0,.851.648h0L18.1,26.863Z" transform="translate(0.57 4.415)" fill="#2c2b2d"/>
    </g>
  </g>
</svg>
